<?xml version="1.0" encoding="UTF-8"?><svg id="a" xmlns="http://www.w3.org/2000/svg" viewBox="0 0 840 420"><defs><style>.c{fill:#fa3c32;}.d{fill:#f0b400;}.e{fill:#ff7800;}</style></defs><path class="d" d="m470.71,202.09c-117.58-32.42-178.32-108.5-199.26-192.09H10c25.7,118.8,183.07,190.79,265.51,202.13,53.15,7.32,129.71,8.25,195.2,6.49v-16.53Z"/><path class="c" d="m830,224.39c-89.1-.1-222.65-1.29-310.5,2.31-139.18,5.71-269.41,73.56-286.33,183.3h0s309.77,0,309.77,0h0c18.47-92.47,115.98-140.01,229.33-156.93,16.97-2.53,37.5-5,57.72-7.2v-21.48Z"/><path class="e" d="m830,185.77c-108.1-14.8-190.01-86.59-207.82-175.77h-302.28,0c13.83,113.7,121.79,192.61,260.98,197.82,64.63,2.42,169.3,1.56,249.12,1.55v-23.6Z"/></svg>