<?xml version="1.0" encoding="UTF-8"?><svg id="a" xmlns="http://www.w3.org/2000/svg" viewBox="0 0 1330 730"><defs><style>.c{fill:#fa3c32;}.d{fill:#f0b400;}.e{fill:#ff7800;}.f{fill:#322d28;}</style></defs><path class="d" d="m705.25,224.35c-128.37-35.33-194.68-118.25-217.55-209.35H202.26c28.06,129.47,199.87,207.92,289.88,220.29,58.03,7.97,141.61,8.99,213.11,7.08v-18.02Z"/><path class="c" d="m1097.51,248.65c-97.28-.11-243.08-1.41-338.99,2.51-151.95,6.22-294.14,80.16-312.61,199.76h0s338.2,0,338.2,0h0c20.17-100.78,126.62-152.59,250.38-171.02,18.53-2.76,40.94-5.45,63.02-7.84v-23.41Z"/><path class="e" d="m1097.51,206.56c-118.02-16.13-207.44-94.36-226.89-191.56h-330.02,0c15.1,123.91,132.96,209.91,284.93,215.59,70.56,2.64,184.83,1.7,271.98,1.69v-25.72Z"/><path class="f" d="m15.7,614.14c0-14.14,2.57-27.32,7.71-39.53,5.14-12.21,12.21-22.77,21.21-31.68,9-8.91,19.56-15.93,31.68-21.07,12.12-5.14,25.16-7.71,39.12-7.71,8.45,0,16.8,1.15,25.07,3.44,8.26,2.3,16.25,5.74,23.97,10.33v43.8c-7.35-5.51-14.88-9.73-22.59-12.67-7.71-2.94-16.07-4.41-25.07-4.41-8.45,0-16.21,1.51-23.28,4.55-7.07,3.03-13.22,7.26-18.46,12.67-5.23,5.42-9.32,11.75-12.26,19.01-2.94,7.26-4.41,15.01-4.41,23.28s1.42,15.98,4.27,23.14c2.85,7.16,6.89,13.41,12.12,18.73,5.23,5.33,11.39,9.55,18.46,12.67,7.07,3.12,14.92,4.68,23.55,4.68s17.08-1.42,24.79-4.27c7.71-2.84,15.43-6.93,23.14-12.26v43.8c-8.45,4.78-16.9,8.22-25.35,10.33-8.45,2.11-16.53,3.17-24.24,3.17-14.33,0-27.55-2.53-39.67-7.58-12.12-5.05-22.64-12.03-31.54-20.94-8.91-8.91-15.84-19.46-20.8-31.68-4.96-12.21-7.44-25.48-7.44-39.81Z"/><path class="f" d="m327.27,574.47v136.09h-39.39v-18.18c-4.78,6.98-11.07,12.31-18.87,15.98-7.81,3.67-16.21,5.51-25.21,5.51s-17.68-1.84-25.48-5.51c-7.81-3.67-14.6-8.68-20.39-15.01-5.78-6.34-10.33-13.86-13.64-22.59-3.31-8.72-4.96-18.13-4.96-28.24s1.65-19.46,4.96-28.1c3.31-8.63,7.85-16.16,13.64-22.59,5.78-6.43,12.58-11.48,20.39-15.15,7.8-3.67,16.3-5.51,25.48-5.51s17.4,1.75,25.21,5.23c7.8,3.49,14.09,8.73,18.87,15.7v-17.63h39.39Zm-107.99,68.04c0,4.96.92,9.55,2.76,13.77,1.83,4.23,4.31,7.95,7.44,11.16,3.12,3.22,6.79,5.74,11.02,7.58,4.22,1.84,8.82,2.76,13.77,2.76s9.55-.92,13.77-2.76c4.22-1.83,7.89-4.36,11.02-7.58,3.12-3.21,5.6-6.93,7.44-11.16,1.83-4.22,2.75-8.82,2.75-13.77s-.92-9.55-2.75-13.77c-1.84-4.22-4.32-7.94-7.44-11.16-3.12-3.21-6.8-5.74-11.02-7.58-4.23-1.83-8.82-2.76-13.77-2.76s-9.55.92-13.77,2.76c-4.23,1.84-7.9,4.36-11.02,7.58-3.12,3.22-5.6,6.93-7.44,11.16-1.84,4.23-2.76,8.81-2.76,13.77Z"/><path class="f" d="m346.55,642.51c0-10.28,1.79-19.79,5.37-28.51,3.58-8.72,8.58-16.3,15.01-22.73,6.43-6.43,14.09-11.43,23-15.01,8.91-3.58,18.69-5.37,29.34-5.37,5.88,0,11.8.69,17.77,2.07,5.97,1.38,11.43,3.54,16.39,6.47v37.74c-9.37-6.61-19.19-9.92-29.48-9.92-5.33,0-10.24.87-14.74,2.62-4.5,1.75-8.4,4.18-11.71,7.3-3.31,3.12-5.88,6.84-7.71,11.16-1.84,4.32-2.76,9.05-2.76,14.19s.92,9.87,2.76,14.19c1.83,4.32,4.41,8.04,7.71,11.16,3.31,3.12,7.21,5.56,11.71,7.3,4.5,1.75,9.41,2.62,14.74,2.62s10.56-.96,15.7-2.89c5.14-1.93,9.82-4.45,14.05-7.58v38.02c-5.51,3.12-11.25,5.37-17.22,6.75-5.97,1.38-11.89,2.07-17.77,2.07-10.47,0-20.11-1.75-28.93-5.23-8.82-3.49-16.44-8.36-22.87-14.6-6.43-6.24-11.43-13.77-15.01-22.59-3.58-8.81-5.37-18.55-5.37-29.2Z"/><path class="f" d="m513.76,710.56h-40.22v-192.84h40.22v74.1c4.22-6.61,9.68-11.75,16.39-15.43,6.7-3.67,14.64-5.51,23.83-5.51,15.61,0,27.87,4.96,36.78,14.88,8.91,9.92,13.36,23.51,13.36,40.77v84.02h-40.22v-74.93c0-8.82-2.11-15.65-6.34-20.52-4.23-4.86-10.19-7.3-17.91-7.3s-14.19,2.76-18.87,8.26c-4.68,5.51-7.02,12.95-7.02,22.31v72.18Z"/><path class="f" d="m757.01,678.05c-5.69,11.2-13.91,20.02-24.66,26.45-10.74,6.43-23.55,9.64-38.43,9.64-10.65,0-20.39-1.75-29.2-5.23-8.82-3.49-16.39-8.4-22.73-14.74-6.34-6.34-11.3-13.91-14.88-22.73-3.58-8.81-5.37-18.46-5.37-28.93s1.79-19.79,5.37-28.51c3.58-8.72,8.54-16.3,14.88-22.73,6.34-6.43,13.77-11.43,22.31-15.01,8.54-3.58,17.86-5.37,27.96-5.37s19.7,1.79,28.24,5.37c8.54,3.58,15.84,8.59,21.9,15.01,6.06,6.43,10.79,14.1,14.19,23,3.4,8.91,5.1,18.69,5.1,29.34,0,2.39-.05,4.41-.14,6.06-.1,1.65-.23,2.94-.41,3.86h-100c.37,4.04,1.47,7.71,3.31,11.02,1.83,3.31,4.27,6.2,7.3,8.68,3.03,2.48,6.43,4.41,10.19,5.78,3.76,1.38,7.76,2.07,11.98,2.07,7.53,0,13.5-1.47,17.91-4.41,4.41-2.94,8.17-6.98,11.3-12.12l33.88,13.5Zm-34.71-50.69c-.92-7.34-4.13-13.36-9.64-18.04-5.51-4.68-12.4-7.02-20.66-7.02-4.04,0-7.81.69-11.29,2.07-3.49,1.38-6.61,3.26-9.37,5.65-2.76,2.39-5.01,5.05-6.75,7.99-1.75,2.94-2.8,6.06-3.17,9.37h60.88Z"/><path class="f" d="m920.37,574.47v136.09h-39.39v-18.18c-4.78,6.98-11.07,12.31-18.87,15.98-7.81,3.67-16.21,5.51-25.21,5.51s-17.68-1.84-25.48-5.51c-7.81-3.67-14.6-8.68-20.39-15.01-5.78-6.34-10.33-13.86-13.64-22.59-3.31-8.72-4.96-18.13-4.96-28.24s1.65-19.46,4.96-28.1c3.31-8.63,7.85-16.16,13.64-22.59,5.78-6.43,12.58-11.48,20.39-15.15,7.8-3.67,16.3-5.51,25.48-5.51s17.4,1.75,25.21,5.23c7.8,3.49,14.09,8.73,18.87,15.7v-17.63h39.39Zm-107.99,68.04c0,4.96.92,9.55,2.76,13.77,1.83,4.23,4.31,7.95,7.44,11.16,3.12,3.22,6.79,5.74,11.02,7.58,4.22,1.84,8.82,2.76,13.77,2.76s9.55-.92,13.77-2.76c4.22-1.83,7.89-4.36,11.02-7.58,3.12-3.21,5.6-6.93,7.44-11.16,1.83-4.22,2.75-8.82,2.75-13.77s-.92-9.55-2.75-13.77c-1.84-4.22-4.32-7.94-7.44-11.16-3.12-3.21-6.8-5.74-11.02-7.58-4.23-1.83-8.82-2.76-13.77-2.76s-9.55.92-13.77,2.76c-4.23,1.84-7.9,4.36-11.02,7.58-3.12,3.22-5.6,6.93-7.44,11.16-1.84,4.23-2.76,8.81-2.76,13.77Z"/><path class="f" d="m947.64,710.56v-192.84h39.94v74.93c4.77-6.98,11.06-12.3,18.87-15.98,7.8-3.67,16.21-5.51,25.21-5.51s17.67,1.84,25.48,5.51c7.8,3.68,14.6,8.68,20.39,15.01,5.79,6.34,10.33,13.87,13.64,22.59,3.31,8.73,4.96,18.14,4.96,28.24s-1.65,19.47-4.96,28.1c-3.31,8.63-7.85,16.16-13.64,22.59-5.78,6.43-12.58,11.48-20.39,15.15-7.81,3.67-16.3,5.51-25.48,5.51s-17.4-1.7-25.21-5.1c-7.81-3.4-14.1-8.68-18.87-15.84v17.63h-39.94Zm108.54-68.04c0-4.96-.92-9.55-2.76-13.77-1.84-4.22-4.32-7.94-7.44-11.16-3.13-3.21-6.8-5.74-11.02-7.58-4.23-1.83-8.81-2.76-13.77-2.76s-9.55.92-13.77,2.76c-4.23,1.84-7.9,4.36-11.02,7.58-3.12,3.22-5.6,6.93-7.44,11.16-1.84,4.23-2.76,8.81-2.76,13.77s.92,9.55,2.76,13.77c1.83,4.23,4.31,7.95,7.44,11.16,3.12,3.22,6.79,5.74,11.02,7.58,4.22,1.84,8.82,2.76,13.77,2.76s9.55-.92,13.77-2.76c4.22-1.83,7.89-4.36,11.02-7.58,3.12-3.21,5.6-6.93,7.44-11.16,1.83-4.22,2.76-8.82,2.76-13.77Z"/><path class="f" d="m1155.35,517.72v192.84h-40.22v-192.84h40.22Z"/><path class="f" d="m1309.62,678.05c-5.69,11.2-13.91,20.02-24.66,26.45-10.74,6.43-23.55,9.64-38.43,9.64-10.65,0-20.39-1.75-29.2-5.23-8.82-3.49-16.39-8.4-22.73-14.74-6.34-6.34-11.3-13.91-14.88-22.73-3.58-8.81-5.37-18.46-5.37-28.93s1.79-19.79,5.37-28.51c3.58-8.72,8.54-16.3,14.88-22.73,6.34-6.43,13.77-11.43,22.31-15.01,8.54-3.58,17.86-5.37,27.96-5.37s19.7,1.79,28.24,5.37c8.54,3.58,15.84,8.59,21.9,15.01,6.06,6.43,10.79,14.1,14.19,23,3.4,8.91,5.1,18.69,5.1,29.34,0,2.39-.05,4.41-.14,6.06-.1,1.65-.23,2.94-.41,3.86h-100c.37,4.04,1.47,7.71,3.31,11.02,1.83,3.31,4.27,6.2,7.3,8.68,3.03,2.48,6.43,4.41,10.19,5.78,3.76,1.38,7.76,2.07,11.98,2.07,7.53,0,13.5-1.47,17.91-4.41,4.41-2.94,8.17-6.98,11.3-12.12l33.88,13.5Zm-34.71-50.69c-.92-7.34-4.13-13.36-9.64-18.04-5.51-4.68-12.4-7.02-20.66-7.02-4.04,0-7.81.69-11.29,2.07-3.49,1.38-6.61,3.26-9.37,5.65-2.76,2.39-5.01,5.05-6.75,7.99-1.75,2.94-2.8,6.06-3.17,9.37h60.88Z"/></svg>